<svg width="134" height="40" viewBox="0 0 134 40" fill="none" xmlns="http://www.w3.org/2000/svg">
<path d="M133.111 35.2779C133.111 36.2947 132.71 37.2698 131.996 37.9885C131.281 38.7071 130.313 39.1103 129.303 39.1091H4.69634C2.5933 39.1113 0.886529 37.3963 0.883789 35.2781V4.72663C0.886528 2.60764 2.5925 0.891175 4.69634 0.890625H129.302C130.312 0.890559 131.281 1.29471 131.995 2.01414C132.709 2.73356 133.111 3.7093 133.11 4.72663L133.111 35.2779Z" fill="white"/>
<path d="M129.303 40H4.69645C2.1059 39.9995 0.00479092 37.8867 0 35.2775V4.7275C0.00369443 2.11704 2.10465 0.00220236 4.69645 0H129.303C131.894 0.0033011 133.994 2.1175 133.999 4.7275V35.2775C134.001 37.8825 131.891 40 129.304 40H129.303Z" fill="#A6A6A6"/>
<path d="M133.111 35.2779C133.111 36.2947 132.71 37.2698 131.996 37.9885C131.281 38.7071 130.313 39.1103 129.303 39.1091H4.69634C2.5933 39.1113 0.886529 37.3963 0.883789 35.2781V4.72663C0.886528 2.60764 2.5925 0.891175 4.69634 0.890625H129.302C130.312 0.890559 131.281 1.29471 131.995 2.01414C132.709 2.73356 133.111 3.7093 133.11 4.72663L133.111 35.2779Z" fill="black"/>
<path fill-rule="evenodd" clip-rule="evenodd" d="M28.0401 6.21875C28.2049 7.728 27.611 9.2155 26.743 10.3087C25.8373 11.3853 24.3883 12.2083 22.9771 12.1023C22.7925 10.65 23.5074 9.1055 24.3079 8.16325C25.2127 7.09375 26.7837 6.27475 28.0401 6.21875ZM32.6599 14.9259C32.502 15.0208 29.8925 16.5899 29.921 19.7895C29.9548 23.6525 33.278 24.9307 33.3177 24.9447C33.2978 25.035 32.7971 26.7892 31.5509 28.5687C30.5099 30.1362 29.4195 31.6698 27.6875 31.6968C26.8642 31.7157 26.3082 31.4775 25.7289 31.2293C25.1245 30.9703 24.4947 30.7005 23.5094 30.7005C22.4653 30.7005 21.8078 30.9791 21.1737 31.2477C20.625 31.4801 20.0939 31.7051 19.3452 31.7358C17.6955 31.7968 16.4354 30.0632 15.3567 28.5088C13.2008 25.337 11.5223 19.5705 13.7728 15.6463C14.8632 13.722 16.8516 12.4825 18.977 12.4495C19.9128 12.4301 20.8104 12.7934 21.5973 13.1119C22.199 13.3554 22.7359 13.5728 23.1756 13.5728C23.562 13.5728 24.084 13.3641 24.6923 13.1209C25.651 12.7377 26.8242 12.2687 28.0192 12.3955C28.8366 12.4195 31.1625 12.7205 32.6631 14.924L32.6599 14.9259Z" fill="white"/>
<path d="M129.303 0H62.5601L88.7022 40H129.303C131.894 39.9978 133.995 37.8843 134 35.2747V4.7273C133.995 2.11714 131.895 0.0027531 129.303 0Z" fill="url(#paint0_linear_6544_515)"/>
<path fill-rule="evenodd" clip-rule="evenodd" d="M70.6015 13.4367H69.5595V6.55469H70.6015V13.4367ZM44.9003 13.4947C44.3112 13.4947 43.8018 13.4657 43.3777 13.4167V6.98094C43.9708 6.88867 44.5702 6.8432 45.1703 6.84494C47.5987 6.84494 48.7168 8.04819 48.7168 10.0097C48.7168 12.2722 47.3959 13.4947 44.9003 13.4947ZM86.2602 30.5444C87.0416 29.8332 87.4349 28.9119 87.4349 27.7787C87.4349 26.8594 87.1669 26.0882 86.6274 25.4699C86.0922 24.8517 85.2559 24.3137 84.1179 23.8514C83.1903 23.4834 82.5489 23.1402 82.1972 22.8252C81.792 22.4832 81.5885 22.0469 81.5885 21.5219C81.5885 21.0457 81.7672 20.6447 82.1196 20.3154C82.5389 19.9474 83.1246 19.7624 83.8715 19.7624C84.8169 19.7624 85.6621 19.9664 86.411 20.3744L86.9423 18.6362C86.1468 18.2149 85.1447 18.0037 83.9422 18.0037C82.5955 18.0037 81.5131 18.3529 80.6967 19.0512C79.8803 19.7504 79.4711 20.6444 79.4711 21.7369C79.4711 23.4094 80.6289 24.6807 82.9429 25.5499C83.7941 25.8649 84.4 26.2082 84.7663 26.5762C85.1308 26.9454 85.3167 27.3984 85.3167 27.9397C85.3167 28.5437 85.0924 29.0279 84.6482 29.3899C84.2055 29.7512 83.5846 29.9329 82.7861 29.9329C81.6759 29.9329 80.6557 29.6572 79.7272 29.1029L79.2376 30.8804C80.0976 31.4337 81.2379 31.7094 82.66 31.7094C84.1993 31.7094 85.4001 31.3204 86.2602 30.5444ZM53.2962 31.5124H51.0407L49.8052 27.6024H45.511L44.334 31.5124H42.1384L46.3939 18.2009H49.0218L53.2962 31.5124ZM49.433 25.9622L48.3156 22.4862C48.1975 22.1312 47.9749 21.2947 47.6493 19.9784H47.6096C47.4783 20.5447 47.2689 21.3809 46.9818 22.4859L45.8835 25.9622H49.433ZM62.8978 30.4652C63.7787 29.5179 64.2187 28.2277 64.2187 26.5952C64.2187 25.1339 63.8422 23.9554 63.0923 23.0584C62.3417 22.1629 61.4032 21.7159 60.279 21.7159C58.8408 21.7159 57.7693 22.2892 57.063 23.4354H57.0233L56.9052 21.9139H55.0431C55.0947 22.9922 55.1215 24.0434 55.1215 25.0689V35.4047H57.2387V30.3682C57.7901 31.2764 58.6978 31.7297 59.9599 31.7297C61.129 31.7297 62.1091 31.3084 62.8978 30.4652ZM62.0615 26.6732C62.0615 25.7389 61.8531 24.9687 61.4337 24.3617C60.9761 23.7304 60.3612 23.4142 59.5907 23.4142C59.0681 23.4142 58.5934 23.5904 58.1695 23.9374C57.7445 24.2874 57.4663 24.7449 57.3363 25.3109C57.2781 25.5227 57.245 25.7406 57.2377 25.9602V27.5614C57.2377 28.2589 57.4504 28.8479 57.8755 29.3299C58.3006 29.8099 58.8527 30.0512 59.5319 30.0512C60.3294 30.0512 60.9503 29.7402 61.3942 29.1229C61.8389 28.5037 62.0615 27.6874 62.0615 26.6732ZM73.859 30.4652C74.7399 29.5179 75.1798 28.2277 75.1798 26.5952C75.1798 25.1339 74.8024 23.9554 74.0535 23.0584C73.3006 22.1629 72.3621 21.7159 71.239 21.7159C69.8 21.7159 68.7282 22.2892 68.0233 23.4354H67.9836L67.8654 21.9139H66.0033C66.0549 22.9922 66.0817 24.0434 66.0817 25.0689V35.4047H68.1989V30.3682C68.7503 31.2764 69.6581 31.7297 70.9201 31.7297C72.0902 31.7297 73.0693 31.3084 73.859 30.4652ZM73.0217 26.6732C73.0217 25.7389 72.812 24.9687 72.3929 24.3617C71.9351 23.7304 71.3224 23.4142 70.5516 23.4142C70.0293 23.4142 69.5546 23.5904 69.1285 23.9374C68.7034 24.2874 68.4262 24.7449 68.2965 25.3109C68.2319 25.5749 68.1972 25.7899 68.1972 25.9602V27.5614C68.1972 28.2589 68.4106 28.8479 68.8337 29.3299C69.2588 29.8092 69.8109 30.0512 70.4921 30.0512C71.2906 30.0512 71.9115 29.7402 72.3542 29.1229C72.7991 28.5037 73.0217 27.6874 73.0217 26.6732ZM94.4533 23.5144H92.1194V28.1747C92.1194 29.3599 92.5306 29.9512 93.355 29.9512C93.7334 29.9512 94.0473 29.9192 94.2954 29.8522L94.354 31.4717C93.9371 31.6287 93.3877 31.7077 92.7076 31.7077C91.8713 31.7077 91.2177 31.4507 90.7459 30.9364C90.2762 30.4222 90.04 29.5612 90.04 28.3489V23.5102H88.6496V21.9099H90.04V20.1524L92.1194 19.5202V21.9102H94.4533V23.5144ZM103.707 30.2682C104.543 29.3209 104.963 28.1094 104.963 26.6344V26.6342C104.963 25.1979 104.558 24.0274 103.746 23.1212C102.896 22.1869 101.773 21.7187 100.374 21.7187C98.9234 21.7187 97.7695 22.1929 96.9124 23.1412C96.0573 24.0884 95.6283 25.3067 95.6283 26.7942C95.6283 28.2157 96.0434 29.3942 96.8737 30.3292C97.7038 31.2624 98.8172 31.7297 100.218 31.7297C101.668 31.7297 102.832 31.2434 103.707 30.2682ZM102.768 26.6832C102.768 25.8039 102.579 25.0499 102.201 24.4187C101.757 23.6564 101.121 23.2754 100.298 23.2754C99.4497 23.2754 98.7991 23.6564 98.3564 24.4187C97.977 25.0499 97.7881 25.8169 97.7881 26.7232C97.7881 27.6034 97.977 28.3597 98.3564 28.9889C98.8142 29.7512 99.4527 30.1322 100.28 30.1322C101.089 30.1322 101.724 29.7432 102.183 28.9697C102.572 28.3237 102.768 27.5647 102.768 26.6832ZM111.18 23.7304C111.404 23.7296 111.628 23.7494 111.848 23.7894L111.846 21.7549C111.689 21.7299 111.512 21.7159 111.317 21.7159C110.765 21.7167 110.228 21.897 109.786 22.2299C109.304 22.6112 108.952 23.1202 108.727 23.7514H108.669L108.592 21.9149H106.747C106.79 22.9216 106.811 23.9291 106.809 24.9367V31.5127H108.926V26.4762C108.926 25.7132 109.103 25.0807 109.455 24.5807C109.86 24.0124 110.436 23.7304 111.18 23.7304ZM121.317 26.2592C121.323 26.5834 121.297 26.9073 121.24 27.2264H114.888C114.912 28.1747 115.22 28.9009 115.81 29.4009C116.345 29.8472 117.037 30.0712 117.887 30.0712C118.828 30.0712 119.686 29.9212 120.457 29.6182L120.789 31.0974C119.887 31.4937 118.823 31.6907 117.594 31.6907C116.117 31.6907 114.957 31.2524 114.112 30.3782C113.27 29.5032 112.848 28.3267 112.848 26.8532C112.848 25.4069 113.24 24.2017 114.026 23.2404C114.848 22.2139 115.96 21.7009 117.358 21.7009C118.731 21.7009 119.771 22.2139 120.477 23.2404C121.036 24.0534 121.318 25.0619 121.318 26.2592H121.317ZM118.887 24.0664C119.174 24.5277 119.313 25.0729 119.298 25.7059L114.889 25.7039C114.954 25.0609 115.163 24.5067 115.516 24.0454C115.945 23.4654 116.509 23.1764 117.201 23.1764C117.957 23.1764 118.521 23.4724 118.887 24.0664ZM44.4177 7.73819C44.6489 7.68994 44.9281 7.66994 45.2557 7.66994C46.7982 7.66994 47.6175 8.51519 47.6175 10.0387C47.6175 11.7469 46.7118 12.6594 45.1207 12.6594C44.7829 12.6594 44.5427 12.6504 44.4177 12.6304V7.73819ZM52.2018 13.5437C50.8333 13.5437 49.9462 12.5144 49.9462 11.1169C49.9462 9.66069 50.8519 8.62219 52.2792 8.62219C53.6279 8.62219 54.5347 9.60269 54.5347 11.0399C54.5347 12.5144 53.6001 13.5437 52.2018 13.5437ZM51.008 11.0869C51.008 10.0967 51.4896 9.38869 52.2415 9.38869V9.38844C52.9736 9.38844 53.455 10.1069 53.455 11.0669C53.455 12.0092 52.9631 12.7664 52.2314 12.7664C51.4996 12.7664 51.008 12.0582 51.008 11.0869ZM62.3387 8.71944L60.8736 13.4367H59.9192L59.3125 11.3882C59.1616 10.8871 59.036 10.3786 58.9361 9.86469H58.9162C58.8398 10.3787 58.6949 10.8939 58.5408 11.3882L57.8953 13.4367H56.931L55.5526 8.71919H56.6221L57.1524 10.9619C57.2777 11.4962 57.3829 12.0002 57.4703 12.4764H57.4901C57.5665 12.0792 57.6916 11.5832 57.8755 10.9719L58.5408 8.72044H59.3889L60.0257 10.9239C60.1733 11.4361 60.2988 11.9544 60.4019 12.4774H60.4297C60.4974 11.9924 60.6034 11.4772 60.7476 10.9239L61.3166 8.72044L62.3387 8.71944ZM66.6905 13.4367H67.7312L67.7322 10.6117C67.7322 9.37944 67.0867 8.62194 66.1036 8.62194C65.4668 8.62194 64.8988 8.94219 64.6189 9.44619H64.5899L64.5412 8.71819H63.6256C63.6544 9.20319 63.6643 9.65044 63.6643 10.0674V13.4367H64.7053V10.6309C64.7053 10.0097 65.1294 9.47544 65.746 9.47544C66.3728 9.47544 66.6905 9.89369 66.6905 10.7279V13.4367ZM72.1405 11.1169C72.1405 12.5144 73.0286 13.5437 74.3962 13.5437C75.7935 13.5437 76.729 12.5144 76.728 11.0399C76.728 9.60269 75.8223 8.62219 74.4726 8.62219C73.0463 8.62219 72.1405 9.66069 72.1405 11.1169ZM74.4349 9.38869C73.683 9.38869 73.2016 10.0967 73.2016 11.0869C73.2016 12.0582 73.6939 12.7664 74.424 12.7664C75.1568 12.7664 75.6474 12.0092 75.6474 11.0669C75.6486 10.1069 75.1677 9.38844 74.4349 9.38844V9.38869ZM80.7562 12.8934L80.8317 13.4367L81.7702 13.4377C81.7235 13.1564 81.7027 12.7874 81.7027 12.3114V10.5739C81.7027 9.27244 81.0848 8.62219 79.8614 8.62219C79.2266 8.62219 78.6864 8.75844 78.2534 9.03044L78.4651 9.71944C78.8214 9.48644 79.2269 9.36944 79.6884 9.36944C80.3341 9.36944 80.6607 9.68069 80.6607 10.3017V10.3887C78.9259 10.3887 77.9236 10.9909 77.9236 12.1552C77.9236 12.9514 78.5197 13.5434 79.3587 13.5434C79.9468 13.5434 80.4106 13.3307 80.7284 12.8934H80.7562ZM80.6885 11.0869C79.5326 11.0869 78.9527 11.3692 78.9527 12.0382C78.9527 12.5332 79.2515 12.7754 79.6666 12.7754C80.1959 12.7754 80.6885 12.3684 80.6885 11.8152V11.0869ZM86.7081 12.6792L86.7567 13.4367L87.6833 13.4364C87.6555 13.0482 87.6446 12.6212 87.6446 12.1649V6.55494H86.6026V9.26244H86.5818C86.3316 8.83444 85.8877 8.62119 85.2609 8.62119C84.0772 8.62119 83.2102 9.66069 83.2102 11.1362C83.2102 12.5434 84.0464 13.5437 85.1755 13.5437C85.8778 13.5437 86.3803 13.2517 86.6793 12.6792H86.7081ZM86.6029 10.6609C86.6029 10.0007 86.1686 9.43744 85.5063 9.43744C84.7345 9.43744 84.2631 10.1267 84.2631 11.0969C84.2631 12.0482 84.7524 12.6994 85.4854 12.6994C86.1398 12.6994 86.6026 12.1262 86.6026 11.4469L86.6029 10.6609ZM91.9954 11.1169C91.9954 12.5144 92.8822 13.5434 94.2498 13.5434V13.5437C95.6491 13.5437 96.5836 12.5144 96.5829 11.0399C96.5829 9.60269 95.6771 8.62219 94.3272 8.62219C92.9011 8.62219 91.9954 9.66069 91.9954 11.1169ZM94.2885 9.38844C93.5376 9.38844 93.0559 10.0967 93.0559 11.0869C93.0559 12.0582 93.5475 12.7664 94.2786 12.7664C95.0116 12.7664 95.5019 12.0092 95.5019 11.0669C95.5042 10.1069 95.0225 9.38844 94.2885 9.38844ZM101.138 13.4367H102.18V10.6107C102.18 9.37819 101.533 8.62119 100.55 8.62119C99.9145 8.62119 99.3455 8.94219 99.0663 9.44619H99.0376L98.9889 8.71819H98.0733C98.102 9.20319 98.112 9.65044 98.112 10.0674V13.4367H99.1539V10.6309C99.1539 10.0097 99.577 9.47544 100.194 9.47544C100.821 9.47544 101.138 9.89369 101.138 10.7279V13.4367ZM109.183 9.50544H108.037V11.7962C108.037 12.3794 108.238 12.6704 108.643 12.6704C108.827 12.6704 108.981 12.6504 109.105 12.6214L109.134 13.4177C108.932 13.4957 108.662 13.5347 108.326 13.5347C107.506 13.5347 107.016 13.0784 107.016 11.8842V9.50544H106.332V8.71944H107.016V7.85494L108.037 7.54369V8.71819H109.182L109.183 9.50544ZM113.652 13.4367H114.692V10.6309C114.692 9.39744 114.087 8.62119 113.095 8.62119C112.49 8.62119 112.015 8.87444 111.687 9.38844H111.666V6.55469H110.627V13.4367H111.666V10.5929C111.666 9.84569 112.169 9.47644 112.708 9.47644C113.336 9.47644 113.652 9.90369 113.652 10.7479V13.4367ZM120.337 11.3299H117.214C117.234 12.2232 117.821 12.7274 118.69 12.7274C119.151 12.7274 119.577 12.6494 119.952 12.5044L120.114 13.2327C119.671 13.4267 119.149 13.5237 118.543 13.5237C117.078 13.5237 116.211 12.5912 116.211 11.1462C116.211 9.69969 117.099 8.61219 118.426 8.61219C119.622 8.61219 120.373 9.50544 120.373 10.8547C120.38 11.014 120.368 11.1735 120.337 11.3299ZM118.353 9.34044C119.018 9.34044 119.383 9.85469 119.383 10.5829H117.215C117.282 9.86469 117.755 9.34044 118.353 9.34044Z" fill="white"/>
<defs>
<linearGradient id="paint0_linear_6544_515" x1="227.102" y1="40.1062" x2="227.102" y2="-104.153" gradientUnits="userSpaceOnUse">
<stop stop-color="#1A1A1A" stop-opacity="0.1"/>
<stop offset="0.123" stop-color="#212121" stop-opacity="0.151"/>
<stop offset="0.308" stop-color="#353535" stop-opacity="0.227"/>
<stop offset="0.532" stop-color="#575757" stop-opacity="0.318"/>
<stop offset="0.783" stop-color="#858585" stop-opacity="0.421"/>
<stop offset="1" stop-color="#B3B3B3" stop-opacity="0.51"/>
</linearGradient>
</defs>
</svg>
