<svg width="24" height="24" viewBox="0 0 24 24" fill="none" xmlns="http://www.w3.org/2000/svg">
<path d="M21.69 8.24966C21.63 6.97966 21.38 5.34966 20.02 3.98966C18.66 2.62966 17.03 2.37966 15.76 2.31966C14.25 2.23966 9.75997 2.22966 8.25997 2.31966C6.98997 2.37966 5.35996 2.61966 3.99996 3.98966C2.63996 5.34966 2.38995 6.97966 2.32995 8.24966C2.23995 9.75966 2.23995 14.2497 2.32995 15.7497C2.38995 17.0197 2.62996 18.6497 3.99996 20.0197C5.36996 21.3797 6.99997 21.6297 8.25997 21.6897C9.01997 21.7297 10.52 21.7497 12.02 21.7497C13.52 21.7497 15.01 21.7297 15.76 21.6897C17.03 21.6297 18.66 21.3897 20.03 20.0197C21.39 18.6597 21.64 17.0297 21.7 15.7597C21.79 14.2497 21.79 9.76965 21.7 8.25965L21.69 8.24966ZM20.19 15.6697C20.11 17.1797 19.75 18.1597 18.95 18.9497C18.16 19.7397 17.18 20.1096 15.67 20.1796C14.2 20.2596 9.80997 20.2596 8.31997 20.1796C6.81997 20.0996 5.83997 19.7297 5.03997 18.9397C4.24997 18.1497 3.87996 17.1697 3.80996 15.6597C3.72996 14.2197 3.72996 9.75965 3.80996 8.30965C3.88996 6.79965 4.24997 5.81966 5.03997 5.02966C5.82997 4.23966 6.81997 3.86966 8.31997 3.79966C9.05997 3.75966 10.52 3.73966 11.99 3.73966C13.46 3.73966 14.93 3.75966 15.67 3.79966C17.18 3.87966 18.16 4.23965 18.95 5.03965C19.74 5.82965 20.11 6.80966 20.18 8.31966C20.26 9.79966 20.26 14.1897 20.18 15.6697H20.19ZM12 7.24966C9.37996 7.24966 7.24996 9.37966 7.24996 11.9997C7.24996 14.6197 9.37996 16.7497 12 16.7497C14.62 16.7497 16.75 14.6197 16.75 11.9997C16.75 9.37966 14.62 7.24966 12 7.24966ZM12 15.2497C10.21 15.2497 8.74996 13.7897 8.74996 11.9997C8.74996 10.2097 10.21 8.74966 12 8.74966C13.79 8.74966 15.25 10.2097 15.25 11.9997C15.25 13.7897 13.79 15.2497 12 15.2497ZM18.52 6.49966C18.52 7.04966 18.07 7.49966 17.52 7.49966C16.97 7.49966 16.52 7.04966 16.52 6.49966C16.52 5.94966 16.96 5.49966 17.52 5.49966C18.07 5.49966 18.52 5.94966 18.52 6.49966Z" fill="white"/>
</svg>
