<svg width="22" height="22" viewBox="0 0 22 22" fill="none" xmlns="http://www.w3.org/2000/svg">
<path d="M10.75 0C4.82 0 0 4.82 0 10.75C0 16.68 4.82 21.5 10.75 21.5C16.68 21.5 21.5 16.68 21.5 10.75C21.5 4.82 16.68 0 10.75 0ZM10.75 20C5.65 20 1.5 15.85 1.5 10.75C1.5 5.65 5.65 1.5 10.75 1.5C15.85 1.5 20 5.65 20 10.75C20 15.85 15.85 20 10.75 20ZM15.42 14.84C15.42 15.21 15.13 15.46 14.81 15.46C14.64 15.46 14.54 15.41 14.38 15.31C11.86 13.79 8.93999 13.73 6.04999 14.32C5.88999 14.36 5.69001 14.42 5.57001 14.42C5.18001 14.42 4.92999 14.11 4.92999 13.78C4.92999 13.36 5.18001 13.17 5.48001 13.1C8.78001 12.37 12.16 12.43 15.04 14.16C15.29 14.32 15.43 14.46 15.43 14.83L15.42 14.84ZM16.67 12.03C16.67 12.47 16.33 12.82 15.89 12.82C15.68 12.82 15.54 12.73 15.39 12.65C12.87 11.16 9.10999 10.56 5.76999 11.46C5.57999 11.51 5.47001 11.56 5.29001 11.56C4.86001 11.56 4.51001 11.21 4.51001 10.78C4.51001 10.35 4.72001 10.06 5.13 9.95C6.25 9.64 7.40001 9.39999 9.07001 9.39999C11.69 9.39999 14.22 10.05 16.21 11.23C16.54 11.42 16.67 11.67 16.67 12.02V12.03ZM18.07 8.8C18.07 9.35 17.63 9.74001 17.13 9.74001C16.92 9.74001 16.79 9.69 16.61 9.58C13.74 7.87 8.61 7.46 5.28 8.38C5.13 8.42 4.95001 8.48 4.76001 8.48C4.23001 8.48 3.82001 8.06 3.82001 7.53C3.82001 7 4.15999 6.67001 4.51999 6.57001C5.93999 6.15001 7.53001 5.96001 9.26001 5.96001C12.2 5.96001 15.29 6.57 17.54 7.89C17.85 8.07 18.06 8.32 18.06 8.8H18.07Z" fill="white"/>
</svg>
