<svg width="18" height="20" viewBox="0 0 18 20" fill="none" xmlns="http://www.w3.org/2000/svg">
<path d="M17.27 4.52C17.13 4.38 16.94 4.3 16.74 4.3C15.97 4.3 15.07 4.06001 14.54 3.71001C13.72 3.18001 13.15 2.34 12.98 1.39C12.94 1.18 12.92 0.96 12.93 0.75C12.93 0.55 12.85 0.360001 12.71 0.220001C12.57 0.0800012 12.38 0 12.18 0H9.08997C8.67997 0 8.33997 0.34 8.33997 0.75V13.04C8.33997 13.23 8.31 13.42 8.25 13.6C8.1 14.08 7.77002 14.47 7.33002 14.7C6.89002 14.93 6.37996 14.98 5.89996 14.83C5.41996 14.68 5.02999 14.35 4.79999 13.91C4.56999 13.47 4.51999 12.96 4.67999 12.48C4.82999 12 5.15998 11.61 5.59998 11.38C6.03998 11.15 6.54997 11.1 7.02997 11.25C7.25997 11.32 7.51001 11.28 7.70001 11.14C7.89001 11 8.01001 10.77 8.01001 10.54V7.38C8.01001 7.01 7.72999 6.69 7.35999 6.64C7.06999 6.6 6.76997 6.58 6.46997 6.58C4.73997 6.58 3.11996 7.25 1.89996 8.47C0.679963 9.69 0.01 11.31 0 13.04C0 16.61 2.89996 19.51 6.45996 19.51C10.02 19.51 12.93 16.61 12.93 13.05V8.06001C14.08 8.59001 15.42 8.89 16.73 8.89C17.15 8.89 17.5 8.56 17.5 8.14V5.07001C17.5 4.87001 17.42 4.68001 17.28 4.54001L17.27 4.52ZM15.99 7.34001C14.75 7.21001 13.5 6.78 12.61 6.14C12.38 5.98 12.08 5.95 11.83 6.08C11.58 6.21 11.42 6.47 11.42 6.75V13.03C11.42 15.77 9.19001 17.99 6.45001 17.99C3.71001 17.99 1.48999 15.76 1.48999 13.02C1.48999 11.69 2.01001 10.45 2.95001 9.51001C3.89001 8.57001 5.12996 8.06001 6.45996 8.06001C6.45996 8.06001 6.47999 8.06001 6.48999 8.06001V9.65001C5.95999 9.63001 5.39001 9.77 4.89001 10.03C4.09001 10.45 3.49998 11.15 3.22998 12.01C2.95998 12.87 3.03996 13.78 3.45996 14.58C3.87996 15.38 4.58 15.97 5.44 16.24C6.3 16.51 7.21001 16.43 8.01001 16.01C8.81001 15.59 9.39998 14.89 9.66998 14.03C9.76998 13.7 9.83002 13.36 9.83002 13.02V1.48001H11.48C11.48 1.54001 11.5 1.59001 11.51 1.65001C11.76 3.01001 12.58 4.21001 13.73 4.96001C14.32 5.35001 15.16 5.63001 16 5.74001V7.32001L15.99 7.34001Z" fill="white"/>
</svg>
