<svg width="22" height="16" viewBox="0 0 22 16" fill="none" xmlns="http://www.w3.org/2000/svg">
<path d="M21.06 2.74001C20.76 1.62001 19.88 0.740002 18.76 0.440002C17.15 0.0100024 11.4 0 10.75 0C10.1 0 4.34999 0.0100024 2.73999 0.440002C1.61999 0.740002 0.740002 1.62001 0.440002 2.74001C2.44379e-06 4.38001 0 7.62001 0 7.76001C0 7.90001 2.44379e-06 11.14 0.440002 12.78C0.730002 13.88 1.61999 14.75 2.73999 15.05C4.34999 15.48 10.1 15.49 10.75 15.49C11.4 15.49 17.15 15.48 18.76 15.05C19.88 14.75 20.77 13.88 21.06 12.78C21.5 11.14 21.5 7.90001 21.5 7.76001C21.5 7.62001 21.5 4.38001 21.06 2.74001ZM19.61 12.39C19.45 12.98 18.99 13.44 18.37 13.6C17.17 13.92 12.46 13.99 10.75 13.99C9.04 13.99 4.33 13.92 3.13 13.6C2.51 13.43 2.05001 12.98 1.89001 12.39C1.50001 10.94 1.5 7.79001 1.5 7.76001C1.5 7.73001 1.50001 4.58 1.89001 3.13C2.05001 2.53 2.53 2.05 3.13 1.89C4.33 1.57 9.04 1.5 10.75 1.5C12.46 1.5 17.17 1.57 18.37 1.89C18.97 2.05 19.45 2.53 19.61 3.13C20 4.58 20 7.73001 20 7.76001C20 7.79001 20 10.94 19.61 12.39ZM8.75 4.74001L13.75 7.74001L8.75 10.74V4.74001Z" fill="white"/>
</svg>
